<svg xmlns="http://www.w3.org/2000/svg" width="256" height="256" viewBox="0 0 64 64">
  <rect x="0" y="0" width="64" height="64" rx="8" fill="#F7F7FB"/>
  <!-- Bank -->
  <path d="M12,26 32,16 52,26 52,30 12,30 Z
           M18,30 V48 H24 V30 Z
           M28,30 V48 H36 V30 Z
           M40,30 V48 H46 V30 Z
           M12,48 H52 V52 H12 Z" fill="#3F3D56"/>
  <!-- Trend -->
  <polyline points="16,44 28,38 36,42 48,30" fill="none" stroke="#6A9CFD" stroke-width="3" stroke-linecap="round" stroke-linejoin="round"/>
  <!-- Dollar badge -->
  <circle cx="36" cy="12" r="10" fill="#E7F2FF"/>
  <path d="M34.5,7 V9 c-1.4,0 -2.0,0.6 -2.0,1.3 0,0.7 0.6,1.1 2.2,1.6 2.1,0.7 3.8,1.6 3.8,3.9 0,1.8 -1.3,3.1 -3.5,3.4 V21 H33 V19.2 c-1.6,-0.2 -2.8,-1.0 -3.5,-2.2 l1.6,-1.1 c0.6,0.9 1.5,1.5 2.9,1.5 1.3,0 2.0,-0.6 2.0,-1.4 0,-0.8 -0.6,-1.2 -2.2,-1.7 -2.3,-0.7 -3.9,-1.6 -3.9,-3.8 0,-1.6 1.2,-2.9 3.1,-3.2 V6 h2 V7 c1.3,0.2 2.3,0.8 3.0,1.7 l-1.4,1.1 c-0.5,-0.6 -1.3,-1.0 -2.1,-1.0z" fill="#1F6FEB"/>
</svg>